<svg width="27" height="27" viewBox="0 0 27 27" fill="none" xmlns="http://www.w3.org/2000/svg">
<path d="M19.0596 17.622C20.6713 15.8619 21.6282 13.6009 21.7698 11.2186C21.9113 8.83627 21.2288 6.47782 19.8369 4.53927C18.445 2.60072 16.4285 1.20013 14.126 0.572713C11.8234 -0.0547071 9.3751 0.129254 7.19217 1.0937C5.00923 2.05815 3.22462 3.74434 2.13804 5.86912C1.05145 7.99389 0.729054 10.4278 1.225 12.7622C1.72094 15.0966 3.00501 17.1893 4.86158 18.6888C6.71815 20.1883 9.03413 21.0033 11.4206 20.997C13.673 21.0001 15.8645 20.2661 17.6606 18.907L25.4086 26.714C25.4941 26.8031 25.5965 26.8741 25.7099 26.9231C25.8232 26.972 25.9452 26.9978 26.0686 26.999C26.1923 26.9994 26.3148 26.9743 26.4283 26.9253C26.5419 26.8762 26.6441 26.8043 26.7286 26.714C26.9025 26.5331 26.9997 26.2919 26.9997 26.041C26.9997 25.7901 26.9025 25.5489 26.7286 25.368L19.0596 17.622ZM2.88662 10.497C2.89946 8.81172 3.41094 7.16796 4.35659 5.77294C5.30224 4.37793 6.63972 3.2941 8.20044 2.65809C9.76115 2.02208 11.4752 1.86236 13.1266 2.19907C14.7779 2.53578 16.2926 3.35385 17.4797 4.55014C18.6668 5.74642 19.4732 7.26738 19.7972 8.92128C20.1212 10.5752 19.9483 12.288 19.3002 13.8437C18.6522 15.3995 17.5581 16.7286 16.1559 17.6635C14.7536 18.5983 13.1059 19.0971 11.4206 19.097C9.14916 19.0861 6.97482 18.1745 5.37484 16.5621C3.77486 14.9498 2.87998 12.7685 2.88662 10.497V10.497Z" fill="#E8E8E8"/>
</svg>
